<?xml version="1.0" encoding="iso-8859-1"?>
<!-- Generator: Adobe Illustrator 19.0.0, SVG Export Plug-In . SVG Version: 6.00 Build 0)  -->
<svg version="1.1" id="Capa_1" xmlns="http://www.w3.org/2000/svg" xmlns:xlink="http://www.w3.org/1999/xlink" x="0px" y="0px"
	 viewBox="0 0 512.001 512.001" style="enable-background:new 0 0 512.001 512.001;" xml:space="preserve">
<path style="fill:#FCC938;" d="M357.45,372.261l-185.651,75.103l-1.933,0.784c-22.394,9.29-48.079-1.317-57.369-23.721
	L3.369,161.583c-9.3-22.394,1.317-48.079,23.711-57.369l166.622-69.178c22.404-9.3,48.09,1.317,57.38,23.7l13.198,28.298
	l77.496,166.099L357.45,372.261z"/>
<path style="fill:#E2A91B;" d="M357.45,372.261l-185.651,75.103l-7.357-2.215c-23.209-7.001-36.355-31.485-29.353-54.705
	l82.198-272.468c6.228-20.649,26.292-33.335,46.993-30.942l77.496,166.099L357.45,372.261z"/>
<path style="fill:#ED3B3B;" d="M510.121,176.62l-82.198,272.478c-7.001,23.209-31.496,36.355-54.705,29.353l-144.061-43.461
	l-28.664-8.652c-23.219-7.001-36.355-31.485-29.353-54.705l82.198-272.468c7.001-23.209,31.485-36.355,54.694-29.353l172.735,52.113
	c1.578,0.481,3.114,1.035,4.598,1.682C505.669,132.261,516.642,154.989,510.121,176.62z"/>
<g>
</g>
<g>
</g>
<g>
</g>
<g>
</g>
<g>
</g>
<g>
</g>
<g>
</g>
<g>
</g>
<g>
</g>
<g>
</g>
<g>
</g>
<g>
</g>
<g>
</g>
<g>
</g>
<g>
</g>
</svg>
