<?xml version="1.0" ?><!DOCTYPE svg  PUBLIC '-//W3C//DTD SVG 1.1//EN'  'http://www.w3.org/Graphics/SVG/1.1/DTD/svg11.dtd'><svg style="enable-background:new 0 0 512 512;" version="1.1" viewBox="0 0 512 512" xml:space="preserve" xmlns="http://www.w3.org/2000/svg" xmlns:xlink="http://www.w3.org/1999/xlink"><g id="footbal"><g><g><defs><circle cx="255.997" cy="255.108" id="SVGID_1_" r="197.391"/></defs><use style="overflow:visible;fill:#EEEEEE;" xlink:href="#SVGID_1_"/><clipPath id="SVGID_2_"><use style="overflow:visible;" xlink:href="#SVGID_1_"/></clipPath><polygon points="294.403,26 318.137,100.068 256,145.724 193.862,99.813      217.597,26    " style="clip-path:url(#SVGID_2_);fill:#424242;"/><polygon points="49.955,149.063 127.455,148.874 151.927,221.904 89.51,267.215      26.611,222.235    " style="clip-path:url(#SVGID_2_);fill:#424242;"/><polygon points="485.56,223.493 422.243,268.183 360.248,222.478      385.293,149.528 462.616,150.194    " style="clip-path:url(#SVGID_2_);fill:#424242;"/><polygon points="359.993,462.855 297.557,416.942 321.284,343.667      398.411,344.329 422.258,417.886    " style="clip-path:url(#SVGID_2_);fill:#424242;"/><polygon points="89.736,415.144 114.901,341.843 191.918,342.599      214.327,416.401 151.252,461.133    " style="clip-path:url(#SVGID_2_);fill:#424242;"/></g><polygon points="217.089,316 193.041,241.485 256,195.491 318.958,241.61 294.91,316   " style="fill:#424242;"/><g><path d="M256,70c49.683,0,96.391,19.347,131.522,54.478S442,206.317,442,256     s-19.347,96.391-54.478,131.522S305.683,442,256,442s-96.391-19.347-131.522-54.478S70,305.683,70,256     s19.347-96.391,54.478-131.522S206.317,70,256,70 M256,56C145.543,56,56,145.543,56,256s89.543,200,200,200s200-89.543,200-200     S366.457,56,256,56L256,56z" style="fill:#424242;"/></g><line style="fill:none;stroke:#424242;stroke-width:5;stroke-miterlimit:10;" x1="291.91" x2="323.284" y1="312.407" y2="347.667"/><line style="fill:none;stroke:#424242;stroke-width:5;stroke-miterlimit:10;" x1="187.91" x2="219.284" y1="347.667" y2="312.407"/><line style="fill:none;stroke:#424242;stroke-width:5;stroke-miterlimit:10;" x1="312.208" x2="368.786" y1="244.721" y2="218.286"/><line style="fill:none;stroke:#424242;stroke-width:5;stroke-miterlimit:10;" x1="199.786" x2="143.208" y1="244.721" y2="218.286"/><line style="fill:none;stroke:#424242;stroke-width:5;stroke-miterlimit:10;" x1="256.5" x2="256.5" y1="204" y2="135"/><polygon points="203.236,417.5 117.862,354.512     85.252,253.669 117.862,154.917 203.236,94.5 308.764,94.5 394.138,154.677 426.748,254.114 394.138,354.975 308.764,417.5   " style="fill:none;stroke:#424242;stroke-width:5;stroke-miterlimit:10;"/></g></g><g id="Layer_1"/></svg>